Coordinates
version=1
nRows=16
nColumns=40
inDegrees=yes

Units are S.I. units (second, meters, Newtons, ...)
Angles are in degrees.

endheader
time	pelvis_tilt	pelvis_list	pelvis_rotation	pelvis_tx	pelvis_ty	pelvis_tz	hip_flexion_r	hip_adduction_r	hip_rotation_r	knee_angle_r	knee_angle_r_beta	ankle_angle_r	subtalar_angle_r	mtp_angle_r	hip_flexion_l	hip_adduction_l	hip_rotation_l	knee_angle_l	knee_angle_l_beta	ankle_angle_l	subtalar_angle_l	mtp_angle_l	lumbar_extension	lumbar_bending	lumbar_rotation	arm_flex_r	arm_add_r	arm_rot_r	elbow_flex_r	pro_sup_r	wrist_flex_r	wrist_dev_r	arm_flex_l	arm_add_l	arm_rot_l	elbow_flex_l	pro_sup_l	wrist_flex_l	wrist_dev_l
     27.24500000	     -3.94620828	     -5.69719101	     -6.01180479	      1.11828946	      0.92423507	      0.49180456	     18.99044389	      3.41877716	    -10.15340791	     21.16823011	     21.16823011	      7.31881321	     -1.89667683	     -2.85212821	      9.22500094	    -14.02211918	     -7.75031174	     41.03283742	     41.03283742	     12.72137665	    -17.36223319	     -4.12457371	    -11.02693006	      6.09136723	      1.18829015	      6.61151407	    -14.59668992	     -3.04144945	     43.65272551	     45.54509216	      0.00000000	      0.00000000	      3.36675635	    -11.69737821	     -7.43324951	     42.74434021	     46.40359356	      0.00000000	      0.00000000
     27.25828571	     -3.94677340	     -5.75243191	     -5.60258425	      1.11836241	      0.92446268	      0.49447560	     18.54966405	      3.53763995	    -10.53156466	     21.11705937	     21.11705937	      7.71961585	     -1.83313380	     -2.95587281	     11.10465771	    -14.57068439	     -6.74106502	     44.54595366	     44.54595366	     11.10054697	    -17.84985504	     -4.10325909	    -11.04070838	      6.19938090	      1.16254038	      7.06965086	    -14.84705877	     -3.08844537	     44.20998553	     45.53006914	      0.00000000	      0.00000000	      3.35892740	    -11.76119041	     -7.40430282	     42.72549090	     46.40103713	      0.00000000	      0.00000000
     27.27157143	     -3.88839310	     -5.80348524	     -5.19797052	      1.11822055	      0.92474858	      0.49699000	     18.07267200	      3.64153004	    -10.93042184	     21.09068175	     21.09068175	      8.03836405	     -1.81526969	     -3.02749690	     12.94992528	    -15.04719782	     -5.70808175	     47.94591869	     47.94591869	      9.40768346	    -18.18512792	     -3.82836684	    -11.14820580	      6.27974686	      1.17682343	      7.54840316	    -15.17379263	     -3.15268910	     44.78063593	     45.51543181	      0.00000000	      0.00000000	      3.47235224	    -11.85922578	     -7.40332533	     42.79160651	     46.40339537	      0.00000000	      0.00000000
     27.28485714	     -4.03271817	     -5.71874966	     -4.76228548	      1.11776051	      0.92457491	      0.49913849	     17.95757077	      3.56315579	    -11.32286751	     21.28944025	     21.28944025	      8.52097802	     -1.71886291	     -3.05975766	     15.21526462	    -15.15734533	     -4.34538661	     51.50617048	     51.50617048	      8.70180413	    -18.30845803	     -0.67595475	    -11.06000898	      6.25677174	      1.14885830	      7.26589238	    -15.71605955	     -3.04744903	     47.36097003	     45.41635609	      0.00000000	      0.00000000	      3.26685565	    -11.94134714	     -7.42010550	     43.16119484	     46.41023714	      0.00000000	      0.00000000
     27.29814286	     -4.02064768	     -5.81723368	     -4.33970340	      1.11724583	      0.92470106	      0.50130570	     17.48779897	      3.74070411	    -11.63853588	     21.13370289	     21.13370289	      8.83257937	     -1.75617206	     -3.08286660	     17.12509952	    -15.50299791	     -3.23285911	     54.54176358	     54.54176358	      7.16067361	    -18.46993267	     -0.04941299	    -11.13620479	      6.38666219	      1.37728671	      7.64384835	    -16.21308401	     -3.13056529	     47.70376698	     45.41151043	      0.00000000	      0.00000000	      3.40110106	    -11.93157188	     -7.43492360	     43.25363633	     46.41491455	      0.00000000	      0.00000000
     27.31142857	     -4.08220694	     -5.68806642	     -3.91808432	      1.11642269	      0.92464786	      0.50306344	     17.30770529	      3.63469611	    -11.84985101	     21.31015950	     21.31015950	      9.26204823	     -1.94073064	     -3.02211025	     19.23701087	    -15.31679665	     -1.89716322	     57.58934172	     57.58934172	      7.21189665	    -18.40918077	      4.71253101	    -11.19169719	      6.29341883	      1.52353035	      7.48446873	    -16.84790158	     -3.14925014	     49.72537804	     45.34606795	      0.00000000	      0.00000000	      3.41794407	    -11.93837997	     -7.68089497	     43.59636783	     46.44871635	      0.00000000	      0.00000000
     27.32471429	     -4.12026677	     -5.66864923	     -3.48266331	      1.11554884	      0.92469940	      0.50477832	     16.96947499	      3.66763832	    -12.11202205	     21.23627668	     21.23627668	      9.64217179	     -2.00842438	     -2.95883234	     21.12660758	    -15.29330131	     -0.79713517	     60.03933014	     60.03933014	      6.81063775	    -18.35562073	      7.27499410	    -11.24632727	      6.29901113	      1.78601938	      7.70219438	    -17.42657600	     -3.27065662	     50.58916261	     45.33524601	      0.00000000	      0.00000000	      3.55935352	    -11.90529883	     -7.95295260	     43.68818465	     46.48385321	      0.00000000	      0.00000000
     27.33800000	     -4.11489313	     -5.59615303	     -3.03895182	      1.11454234	      0.92490847	      0.50637718	     16.60830337	      3.64446934	    -12.34934912	     21.16649697	     21.16649697	      9.90399602	     -2.17783557	     -2.98737798	     22.76665915	    -15.26845461	     -0.00525481	     61.83609690	     61.83609690	      5.84167737	    -18.41992035	      7.49863165	    -11.37734508	      6.21472706	      1.87039966	      8.21870445	    -17.90154646	     -3.41158907	     50.82351525	     45.33760336	      0.00000000	      0.00000000	      3.70046414	    -11.98583201	     -8.01965638	     43.76547926	     46.49329783	      0.00000000	      0.00000000
     27.35128571	     -4.22674555	     -5.50863248	     -2.57967373	      1.11337161	      0.92495681	      0.50780320	     16.39481172	      3.61089180	    -12.53513453	     21.11189559	     21.11189559	     10.19822350	     -2.43127326	     -3.01214349	     24.46900472	    -15.17069007	      0.72921005	     63.21564390	     63.21564390	      5.35327297	    -18.48345923	      8.05221431	    -11.35814164	      6.13062434	      1.90895706	      8.64278395	    -18.32632842	     -3.54444144	     51.26986610	     45.33194818	      0.00000000	      0.00000000	      3.68513788	    -12.03822516	     -8.17427177	     43.85835167	     46.51021869	      0.00000000	      0.00000000
     27.36457143	     -4.27535151	     -5.32140635	     -2.11291138	      1.11210655	      0.92516207	      0.50896331	     16.14725000	      3.46934415	    -12.61601791	     21.09639379	     21.09639379	     10.49694056	     -2.85457896	     -2.94552964	     26.05261953	    -14.87899278	      1.34307389	     64.23030645	     64.23030645	      6.00071317	    -18.43882090	     10.82979457	    -11.46516573	      5.94664574	      1.91439260	      8.76260989	    -18.85444676	     -3.61414296	     52.81399814	     45.29050059	      0.00000000	      0.00000000	      3.61778275	    -11.98420596	     -8.97658042	     44.28747264	     46.59462820	      0.00000000	      0.00000000
     27.37785714	     -4.35172257	     -5.19134018	     -1.62111895	      1.11079890	      0.92544412	      0.51003357	     15.82790424	      3.37833612	    -12.85480468	     20.89138775	     20.89138775	     10.74272264	     -3.01578338	     -2.94925515	     27.45885372	    -14.74385168	      1.70018961	     64.51633796	     64.51633796	      6.00668410	    -18.55988262	     10.96331499	    -11.49889888	      5.81448152	      1.99000122	      9.23585565	    -19.29333130	     -3.72472331	     53.07700013	     45.29063728	      0.00000000	      0.00000000	      3.72236586	    -12.03662774	     -9.07349452	     44.30899316	     46.60505755	      0.00000000	      0.00000000
     27.39114286	     -4.37619118	     -4.99094527	     -1.12730968	      1.10946647	      0.92584871	      0.51098194	     15.47135507	      3.21188529	    -13.04607054	     20.71688090	     20.71688090	     10.99593387	     -3.22776565	     -2.95548944	     28.64839037	    -14.57948124	      1.79695998	     64.22058180	     64.22058180	      6.25348762	    -18.63993644	     10.99403248	    -11.60757435	      5.58282163	      2.06718610	      9.76038056	    -19.70562601	     -3.83988135	     53.32932876	     45.29028560	      0.00000000	      0.00000000	      3.84636243	    -12.12225801	     -9.12860589	     44.34180955	     46.61227736	      0.00000000	      0.00000000
     27.40442857	     -4.49127100	     -4.84434800	     -0.59502732	      1.10805194	      0.92618864	      0.51174887	     15.19298265	      3.09361715	    -13.28877672	     20.49571384	     20.49571384	     11.19281644	     -3.47819324	     -2.93615441	     29.84902323	    -14.45373027	      1.80476718	     63.40440984	     63.40440984	      6.65321088	    -18.80199371	     11.14411253	    -11.63047431	      5.42970573	      2.04662703	     10.23818538	    -20.07014414	     -3.94361891	     53.67563646	     45.28583815	      0.00000000	      0.00000000	      3.93290310	    -12.18980691	     -9.19170660	     44.35039672	     46.61965561	      0.00000000	      0.00000000
     27.41771429	     -4.61830253	     -4.70985696	     -0.00958180	      1.10659863	      0.92654913	      0.51234069	     14.82770620	      3.04135343	    -13.41354598	     20.05541369	     20.05541369	     11.25781246	     -4.01963618	     -2.90987876	     31.03608506	    -14.23025432	      1.82951007	     62.23507153	     62.23507153	      7.88490540	    -18.90896838	     13.43411109	    -11.64912711	      5.33378474	      1.79547640	     10.28046481	    -20.44855746	     -3.81453808	     55.82709641	     45.21374011	      0.00000000	      0.00000000	      3.93670310	    -12.18858544	     -9.87375800	     44.14055065	     46.68308268	      0.00000000	      0.00000000
     27.43100000	     -4.76198148	     -4.61831365	      0.55927166	      1.10507000	      0.92680133	      0.51283534	     14.61397574	      2.95510079	    -13.71447097	     19.89195061	     19.89195061	     11.44100733	     -4.24583550	     -2.91994605	     32.01905706	    -14.13463873	      1.60887671	     60.42181127	     60.42181127	      8.47295315	    -18.97426059	     13.57056343	    -11.64191817	      5.24620517	      1.85573855	     10.73435134	    -20.81156710	     -3.91111851	     56.07233300	     45.21243651	      0.00000000	      0.00000000	      4.09114526	    -12.21815940	     -9.90124952	     44.17473307	     46.68760914	      0.00000000	      0.00000000
     27.44428571	     -4.83533437	     -4.38368796	      1.13938285	      1.10364369	      0.92737276	      0.51311182	     14.12653206	      2.76931744	    -13.91071469	     19.36115400	     19.36115400	     11.54591106	     -4.47719259	     -2.87467645	     32.70966899	    -13.79141940	      1.26812401	     58.10325389	     58.10325389	      9.19295106	    -19.09180382	     14.31575648	    -11.72919781	      4.99801385	      1.66359134	     11.10436963	    -21.00858932	     -3.93591090	     57.02732323	     45.18544509	      0.00000000	      0.00000000	      4.20279592	    -12.32419682	    -10.03125346	     43.91154845	     46.69794216	      0.00000000	      0.00000000
